<svg width="183" height="40" viewBox="0 0 183 40" fill="none" xmlns="http://www.w3.org/2000/svg">
<g clip-path="url(#clip0_2056_2717)">
<path d="M27.807 10.1873L4.02197 24.0472L12.1837 29.7874L35.9703 15.9284L27.807 10.1873Z" fill="#CA2128"/>
<path d="M4.02197 15.9285V24.0472L10.9884 19.9876L4.02197 15.9285Z" fill="#8A1A1C"/>
<path d="M29.0029 19.9876C29.0029 19.9876 36.0649 15.502 35.9694 15.9285C35.8739 16.3545 35.9694 24.0473 35.9694 24.0473L29.0029 19.9881V19.9876Z" fill="#8A1A1C"/>
<path d="M10.9885 19.9875L10.1411 20.4813L18.7687 25.9509L29.9362 19.3987L20.6219 14.374L10.9885 19.9875Z" fill="#8A1A1C"/>
<path d="M4.02197 15.9284L27.807 29.7874L35.9703 24.0472L12.1837 10.1873L4.02197 15.9284Z" fill="#FD4A35"/>
</g>
<path d="M45.0693 26.532L52.0053 18.18H45.3573V15.924H55.4613V17.892L48.5733 26.244H55.5813V28.5H45.0693V26.532ZM66.3373 28.5L62.6653 23.076L60.9613 24.756V28.5H57.7453V10.98H60.9613V21.588L66.0253 15.948H69.4333L64.7533 21.276L69.7693 28.5H66.3373ZM71.4401 28.5V11.46H77.6321C79.4881 11.46 81.0401 11.844 82.2881 12.612C83.5361 13.364 84.4721 14.388 85.0961 15.684C85.7201 16.964 86.0321 18.388 86.0321 19.956C86.0321 21.684 85.6881 23.188 85.0001 24.468C84.3121 25.748 83.3361 26.74 82.0721 27.444C80.8241 28.148 79.3441 28.5 77.6321 28.5H71.4401ZM82.6961 19.956C82.6961 18.852 82.4961 17.884 82.0961 17.052C81.6961 16.204 81.1201 15.548 80.3681 15.084C79.6161 14.604 78.7041 14.364 77.6321 14.364H74.7521V25.596H77.6321C78.7201 25.596 79.6401 25.356 80.3921 24.876C81.1441 24.38 81.7121 23.708 82.0961 22.86C82.4961 21.996 82.6961 21.028 82.6961 19.956ZM87.2797 24.78C87.2797 23.964 87.5037 23.252 87.9517 22.644C88.4157 22.02 89.0557 21.54 89.8717 21.204C90.6877 20.868 91.6237 20.7 92.6797 20.7C93.2077 20.7 93.7437 20.74 94.2877 20.82C94.8317 20.9 95.3037 21.028 95.7037 21.204V20.532C95.7037 19.732 95.4637 19.116 94.9837 18.684C94.5197 18.252 93.8237 18.036 92.8957 18.036C92.2077 18.036 91.5517 18.156 90.9277 18.396C90.3037 18.636 89.6477 18.988 88.9597 19.452L87.9277 17.34C88.7597 16.796 89.6077 16.388 90.4717 16.116C91.3517 15.844 92.2717 15.708 93.2317 15.708C95.0237 15.708 96.4157 16.156 97.4077 17.052C98.4157 17.948 98.9197 19.228 98.9197 20.892V24.9C98.9197 25.236 98.9757 25.476 99.0877 25.62C99.2157 25.764 99.4157 25.852 99.6877 25.884V28.5C99.3997 28.548 99.1357 28.588 98.8957 28.62C98.6717 28.652 98.4797 28.668 98.3197 28.668C97.6797 28.668 97.1917 28.524 96.8557 28.236C96.5357 27.948 96.3357 27.596 96.2557 27.18L96.1837 26.532C95.6397 27.236 94.9597 27.78 94.1437 28.164C93.3277 28.548 92.4957 28.74 91.6477 28.74C90.8157 28.74 90.0637 28.572 89.3917 28.236C88.7357 27.884 88.2157 27.412 87.8317 26.82C87.4637 26.212 87.2797 25.532 87.2797 24.78ZM95.1037 25.428C95.2797 25.236 95.4237 25.044 95.5357 24.852C95.6477 24.66 95.7037 24.484 95.7037 24.324V23.052C95.3197 22.892 94.9037 22.772 94.4557 22.692C94.0077 22.596 93.5837 22.548 93.1837 22.548C92.3517 22.548 91.6637 22.732 91.1197 23.1C90.5917 23.452 90.3277 23.924 90.3277 24.516C90.3277 24.836 90.4157 25.14 90.5917 25.428C90.7677 25.716 91.0237 25.948 91.3597 26.124C91.6957 26.3 92.0957 26.388 92.5597 26.388C93.0397 26.388 93.5117 26.3 93.9757 26.124C94.4397 25.932 94.8157 25.7 95.1037 25.428ZM109.344 27.852C109.072 27.964 108.744 28.092 108.36 28.236C107.976 28.38 107.56 28.492 107.112 28.572C106.68 28.668 106.24 28.716 105.792 28.716C105.2 28.716 104.656 28.612 104.16 28.404C103.664 28.196 103.264 27.868 102.96 27.42C102.672 26.956 102.528 26.356 102.528 25.62V18.396H100.872V15.924H102.528V11.844H105.744V15.924H108.384V18.396H105.744V24.54C105.76 24.972 105.88 25.284 106.104 25.476C106.328 25.668 106.608 25.764 106.944 25.764C107.28 25.764 107.608 25.708 107.928 25.596C108.248 25.484 108.504 25.388 108.696 25.308L109.344 27.852ZM110.155 24.78C110.155 23.964 110.379 23.252 110.827 22.644C111.291 22.02 111.931 21.54 112.747 21.204C113.563 20.868 114.499 20.7 115.555 20.7C116.083 20.7 116.619 20.74 117.163 20.82C117.707 20.9 118.179 21.028 118.579 21.204V20.532C118.579 19.732 118.339 19.116 117.859 18.684C117.395 18.252 116.699 18.036 115.771 18.036C115.083 18.036 114.427 18.156 113.803 18.396C113.179 18.636 112.523 18.988 111.835 19.452L110.803 17.34C111.635 16.796 112.483 16.388 113.347 16.116C114.227 15.844 115.147 15.708 116.107 15.708C117.899 15.708 119.291 16.156 120.283 17.052C121.291 17.948 121.795 19.228 121.795 20.892V24.9C121.795 25.236 121.851 25.476 121.963 25.62C122.091 25.764 122.291 25.852 122.563 25.884V28.5C122.275 28.548 122.011 28.588 121.771 28.62C121.547 28.652 121.355 28.668 121.195 28.668C120.555 28.668 120.067 28.524 119.731 28.236C119.411 27.948 119.211 27.596 119.131 27.18L119.059 26.532C118.515 27.236 117.835 27.78 117.019 28.164C116.203 28.548 115.371 28.74 114.523 28.74C113.691 28.74 112.939 28.572 112.267 28.236C111.611 27.884 111.091 27.412 110.707 26.82C110.339 26.212 110.155 25.532 110.155 24.78ZM117.979 25.428C118.155 25.236 118.299 25.044 118.411 24.852C118.523 24.66 118.579 24.484 118.579 24.324V23.052C118.195 22.892 117.779 22.772 117.331 22.692C116.883 22.596 116.459 22.548 116.059 22.548C115.227 22.548 114.539 22.732 113.995 23.1C113.467 23.452 113.203 23.924 113.203 24.516C113.203 24.836 113.291 25.14 113.467 25.428C113.643 25.716 113.899 25.948 114.235 26.124C114.571 26.3 114.971 26.388 115.435 26.388C115.915 26.388 116.387 26.3 116.851 26.124C117.315 25.932 117.691 25.7 117.979 25.428ZM131.952 28.74C130.992 28.74 130.136 28.524 129.384 28.092C128.632 27.66 128.04 27.068 127.608 26.316V28.5H124.8V10.98H128.016V18.132C128.464 17.38 129.048 16.788 129.768 16.356C130.504 15.924 131.36 15.708 132.336 15.708C133.152 15.708 133.896 15.884 134.568 16.236C135.24 16.572 135.816 17.044 136.296 17.652C136.792 18.26 137.168 18.956 137.424 19.74C137.696 20.524 137.832 21.364 137.832 22.26C137.832 23.156 137.68 23.996 137.376 24.78C137.088 25.564 136.68 26.26 136.152 26.868C135.624 27.46 135 27.924 134.28 28.26C133.576 28.58 132.8 28.74 131.952 28.74ZM131.064 26.004C131.576 26.004 132.04 25.908 132.456 25.716C132.888 25.508 133.256 25.236 133.56 24.9C133.88 24.564 134.12 24.172 134.28 23.724C134.456 23.26 134.544 22.78 134.544 22.284C134.544 21.596 134.4 20.964 134.112 20.388C133.84 19.796 133.456 19.324 132.96 18.972C132.48 18.62 131.912 18.444 131.256 18.444C130.792 18.444 130.344 18.556 129.912 18.78C129.496 18.988 129.12 19.276 128.784 19.644C128.464 20.012 128.208 20.428 128.016 20.892V23.892C128.112 24.212 128.264 24.5 128.472 24.756C128.696 25.012 128.952 25.236 129.24 25.428C129.528 25.604 129.824 25.748 130.128 25.86C130.448 25.956 130.76 26.004 131.064 26.004ZM139.147 24.78C139.147 23.964 139.371 23.252 139.819 22.644C140.283 22.02 140.923 21.54 141.739 21.204C142.555 20.868 143.491 20.7 144.547 20.7C145.075 20.7 145.611 20.74 146.155 20.82C146.699 20.9 147.171 21.028 147.571 21.204V20.532C147.571 19.732 147.331 19.116 146.851 18.684C146.387 18.252 145.691 18.036 144.763 18.036C144.075 18.036 143.419 18.156 142.795 18.396C142.171 18.636 141.515 18.988 140.827 19.452L139.795 17.34C140.627 16.796 141.475 16.388 142.339 16.116C143.219 15.844 144.139 15.708 145.099 15.708C146.891 15.708 148.283 16.156 149.275 17.052C150.283 17.948 150.787 19.228 150.787 20.892V24.9C150.787 25.236 150.843 25.476 150.955 25.62C151.083 25.764 151.283 25.852 151.555 25.884V28.5C151.267 28.548 151.003 28.588 150.763 28.62C150.539 28.652 150.347 28.668 150.187 28.668C149.547 28.668 149.059 28.524 148.723 28.236C148.403 27.948 148.203 27.596 148.123 27.18L148.051 26.532C147.507 27.236 146.827 27.78 146.011 28.164C145.195 28.548 144.363 28.74 143.515 28.74C142.683 28.74 141.931 28.572 141.259 28.236C140.603 27.884 140.083 27.412 139.699 26.82C139.331 26.212 139.147 25.532 139.147 24.78ZM146.971 25.428C147.147 25.236 147.291 25.044 147.403 24.852C147.515 24.66 147.571 24.484 147.571 24.324V23.052C147.187 22.892 146.771 22.772 146.323 22.692C145.875 22.596 145.451 22.548 145.051 22.548C144.219 22.548 143.531 22.732 142.987 23.1C142.459 23.452 142.195 23.924 142.195 24.516C142.195 24.836 142.283 25.14 142.459 25.428C142.635 25.716 142.891 25.948 143.227 26.124C143.563 26.3 143.963 26.388 144.427 26.388C144.907 26.388 145.379 26.3 145.843 26.124C146.307 25.932 146.683 25.7 146.971 25.428ZM158.424 28.74C157.352 28.74 156.328 28.564 155.352 28.212C154.376 27.86 153.536 27.34 152.832 26.652L153.984 24.564C154.736 25.172 155.472 25.62 156.192 25.908C156.928 26.196 157.632 26.34 158.304 26.34C158.928 26.34 159.424 26.228 159.792 26.004C160.176 25.78 160.368 25.444 160.368 24.996C160.368 24.692 160.264 24.46 160.056 24.3C159.848 24.124 159.544 23.972 159.144 23.844C158.76 23.716 158.288 23.572 157.728 23.412C156.8 23.108 156.024 22.812 155.4 22.524C154.776 22.236 154.304 21.876 153.984 21.444C153.68 20.996 153.528 20.428 153.528 19.74C153.528 18.908 153.736 18.196 154.152 17.604C154.584 16.996 155.176 16.524 155.928 16.188C156.696 15.852 157.592 15.684 158.616 15.684C159.512 15.684 160.36 15.828 161.16 16.116C161.96 16.388 162.688 16.836 163.344 17.46L162.048 19.5C161.408 19.004 160.8 18.644 160.224 18.42C159.648 18.18 159.064 18.06 158.472 18.06C158.136 18.06 157.816 18.1 157.512 18.18C157.224 18.26 156.984 18.396 156.792 18.588C156.616 18.764 156.528 19.02 156.528 19.356C156.528 19.66 156.608 19.9 156.768 20.076C156.944 20.236 157.2 20.38 157.536 20.508C157.888 20.636 158.312 20.78 158.808 20.94C159.816 21.228 160.664 21.524 161.352 21.828C162.056 22.132 162.584 22.508 162.936 22.956C163.288 23.388 163.464 23.988 163.464 24.756C163.464 26.004 163.008 26.98 162.096 27.684C161.184 28.388 159.96 28.74 158.424 28.74ZM171.484 28.74C170.476 28.74 169.564 28.572 168.748 28.236C167.932 27.884 167.236 27.412 166.66 26.82C166.084 26.212 165.636 25.524 165.316 24.756C165.012 23.972 164.86 23.148 164.86 22.284C164.86 21.084 165.124 19.988 165.652 18.996C166.196 18.004 166.964 17.212 167.956 16.62C168.964 16.012 170.148 15.708 171.508 15.708C172.884 15.708 174.06 16.012 175.036 16.62C176.012 17.212 176.756 18.004 177.268 18.996C177.796 19.972 178.06 21.028 178.06 22.164C178.06 22.356 178.052 22.556 178.036 22.764C178.02 22.956 178.004 23.116 177.988 23.244H168.268C168.332 23.884 168.516 24.444 168.82 24.924C169.14 25.404 169.54 25.772 170.02 26.028C170.516 26.268 171.044 26.388 171.604 26.388C172.244 26.388 172.844 26.236 173.404 25.932C173.98 25.612 174.372 25.196 174.58 24.684L177.34 25.452C177.036 26.092 176.596 26.66 176.02 27.156C175.46 27.652 174.796 28.044 174.028 28.332C173.26 28.604 172.412 28.74 171.484 28.74ZM168.196 21.204H174.772C174.708 20.564 174.524 20.012 174.22 19.548C173.932 19.068 173.548 18.7 173.068 18.444C172.588 18.172 172.052 18.036 171.46 18.036C170.884 18.036 170.356 18.172 169.876 18.444C169.412 18.7 169.028 19.068 168.724 19.548C168.436 20.012 168.26 20.564 168.196 21.204Z" fill="#09090B"/>
<defs>
<clipPath id="clip0_2056_2717">
<rect width="32" height="19.6378" fill="white" transform="translate(4 10.1812)"/>
</clipPath>
</defs>
</svg>
